<svg width="28" height="28" viewBox="0 0 28 28" fill="none" xmlns="http://www.w3.org/2000/svg">
<path d="M14.0002 1.85891C3.17988 1.85541 -2.23963 14.9305 5.40932 22.5788C7.1074 24.2766 9.27103 25.433 11.6266 25.9016C13.9822 26.3702 16.4238 26.13 18.6428 25.2114C20.8618 24.2928 22.7585 22.7371 24.0929 20.7409C25.4273 18.7448 26.1396 16.3979 26.1396 13.997C26.1396 7.29499 20.7061 1.86125 14.0002 1.85891ZM7.124 7.91339C7.70879 4.88207 11.6681 4.06998 13.3991 6.62642C15.1301 9.18169 12.9065 12.556 9.87403 11.9727C9.42675 11.8868 9.00078 11.7136 8.62047 11.4631C8.24016 11.2126 7.91296 10.8896 7.65757 10.5126C7.40218 10.1357 7.22361 9.71207 7.13206 9.26608C7.04051 8.82009 7.03777 8.36044 7.124 7.91339ZM12.1688 18.4005C11.5805 21.4307 7.62008 22.2369 5.89256 19.6793C4.16504 17.1217 6.39097 13.752 9.42348 14.3366C9.87081 14.423 10.2967 14.5967 10.6769 14.8477C11.057 15.0988 11.3839 15.4223 11.6389 15.7997C11.8938 16.1771 12.0719 16.6011 12.1628 17.0474C12.2538 17.4936 12.2558 17.9534 12.1688 18.4005ZM13.6396 15.5944C12.2949 15.3342 11.9331 13.5793 13.0664 12.8092C14.1987 12.0392 15.6997 13.0193 15.4476 14.3657C15.4102 14.5653 15.3338 14.7555 15.2226 14.9254C15.1114 15.0952 14.9677 15.2415 14.7998 15.3557C14.6319 15.4699 14.443 15.5497 14.2441 15.5907C14.0452 15.6317 13.839 15.6329 13.6396 15.5944ZM20.8741 20.0725C20.2894 23.1038 16.3301 23.9148 14.599 21.3595C12.8668 18.803 15.0904 15.4299 18.1241 16.0121C18.5715 16.098 18.9976 16.2712 19.378 16.5217C19.7584 16.7723 20.0856 17.0954 20.3411 17.4725C20.5965 17.8496 20.775 18.2734 20.8665 18.7195C20.9579 19.1656 20.9605 19.6254 20.8741 20.0725ZM18.5782 13.6528C15.5457 13.0683 14.7344 9.10702 17.2919 7.3755C19.8481 5.64515 23.2226 7.86788 22.6402 10.8992C22.5548 11.3469 22.3819 11.7733 22.1315 12.154C21.881 12.5348 21.5579 12.8625 21.1806 13.1182C20.8033 13.374 20.3792 13.5529 19.9326 13.6446C19.4861 13.7364 19.0258 13.7391 18.5782 13.6528ZM15.855 27.1433L18.4976 27.855C19.6088 28.1497 20.7916 27.9913 21.786 27.4146C22.7804 26.8378 23.505 25.89 23.8004 24.7793L24.5475 21.9767C22.4443 24.7772 19.3198 26.6341 15.8538 27.1433H15.855ZM24.7762 4.19833L22.018 3.46442C23.4119 4.53617 24.5789 5.874 25.4514 7.40027C26.3238 8.92653 26.8843 10.6108 27.1002 12.3554L27.8589 9.48622C28.1493 8.37629 27.9876 7.19658 27.4093 6.2056C26.831 5.21462 25.8833 4.49322 24.7739 4.19949L24.7762 4.19833ZM0.776528 16.1113L0.145049 18.4915C-0.149799 19.6023 0.00868402 20.7846 0.585658 21.7786C1.16263 22.7726 2.11087 23.4969 3.22191 23.7922L5.68129 24.448C3.05562 22.3844 1.30516 19.4079 0.776528 16.1113ZM12.0813 0.818135L9.50518 0.146064C8.95458 -0.000550666 8.38047 -0.0372537 7.81567 0.0380527C7.25086 0.113359 6.70645 0.299198 6.21354 0.584947C5.72063 0.870695 5.28889 1.25075 4.943 1.70339C4.59712 2.15602 4.34386 2.67236 4.19772 3.22289L3.55457 5.65215C5.67629 3.01245 8.72588 1.28313 12.0813 0.818135Z" fill="#838383"/>
</svg>
