<svg width="12" height="11" viewBox="0 0 12 11" fill="none" xmlns="http://www.w3.org/2000/svg">
<path d="M2.18182 6.6H0V0H2.18182M4.36364 0H9.27273C9.72545 0 10.1127 0.275 10.2764 0.671L11.9236 4.5485C11.9727 4.675 12 4.807 12 4.95V6.05C12 6.34174 11.8851 6.62153 11.6805 6.82782C11.4759 7.03411 11.1984 7.15 10.9091 7.15H7.46727L7.98545 9.6635C7.99636 9.7185 8.00182 9.7735 8.00182 9.834C8.00182 10.065 7.90909 10.2685 7.76182 10.417L7.18364 11L3.59455 7.3755C3.39273 7.1775 3.27273 6.9025 3.27273 6.6V1.1C3.27273 0.808262 3.38766 0.528472 3.59225 0.322183C3.79683 0.115892 4.07431 0 4.36364 0Z" fill="#CFCFCF"/>
</svg>
