<svg width="35" height="35" viewBox="0 0 35 35" fill="none" xmlns="http://www.w3.org/2000/svg">
<circle cx="17.3482" cy="17.3482" r="16.8794" stroke="white" stroke-opacity="0.54" stroke-width="0.937743"/>
<g opacity="0.64">
<path d="M11.7598 21.6562C11.9172 21.6562 12.0683 21.7188 12.1796 21.8302C12.291 21.9415 12.3535 22.0925 12.3535 22.25V24.0312C12.3535 24.1405 12.4422 24.2292 12.5514 24.2292H22.4473C22.4998 24.2292 22.5501 24.2083 22.5872 24.1712C22.6243 24.1341 22.6452 24.0837 22.6452 24.0312V22.25C22.6452 22.0925 22.7077 21.9415 22.8191 21.8302C22.9304 21.7188 23.0815 21.6562 23.2389 21.6562C23.3964 21.6562 23.5474 21.7188 23.6588 21.8302C23.7701 21.9415 23.8327 22.0925 23.8327 22.25V24.0312C23.8327 24.3987 23.6867 24.7511 23.4269 25.0109C23.1671 25.2707 22.8147 25.4167 22.4473 25.4167H12.5514C12.184 25.4167 11.8316 25.2707 11.5718 25.0109C11.312 24.7511 11.166 24.3987 11.166 24.0312V22.25C11.166 22.0925 11.2286 21.9415 11.3399 21.8302C11.4513 21.7188 11.6023 21.6562 11.7598 21.6562Z" fill="white"/>
<path d="M12.133 15.8929C12.188 15.8378 12.2534 15.794 12.3254 15.7642C12.3974 15.7343 12.4746 15.7189 12.5525 15.7189C12.6305 15.7189 12.7077 15.7343 12.7797 15.7642C12.8516 15.794 12.9171 15.8378 12.9721 15.8929L16.9067 19.8267V10.1771C16.9067 10.0196 16.9693 9.86858 17.0806 9.75723C17.192 9.64588 17.343 9.58333 17.5005 9.58333C17.6579 9.58333 17.809 9.64588 17.9203 9.75723C18.0317 9.86858 18.0942 10.0196 18.0942 10.1771V19.8267L22.0288 15.8929C22.1401 15.7816 22.291 15.7191 22.4484 15.7191C22.6057 15.7191 22.7567 15.7816 22.868 15.8929C22.9792 16.0042 23.0418 16.1551 23.0418 16.3125C23.0418 16.4699 22.9792 16.6208 22.868 16.7321L17.92 21.68C17.865 21.7351 17.7996 21.7789 17.7276 21.8088C17.6556 21.8386 17.5784 21.854 17.5005 21.854C17.4225 21.854 17.3453 21.8386 17.2733 21.8088C17.2013 21.7789 17.1359 21.7351 17.0809 21.68L12.133 16.7321C12.0778 16.677 12.0341 16.6116 12.0042 16.5396C11.9743 16.4676 11.959 16.3904 11.959 16.3125C11.959 16.2346 11.9743 16.1574 12.0042 16.0854C12.0341 16.0134 12.0778 15.948 12.133 15.8929Z" fill="white"/>
</g>
</svg>
