<svg width="29" height="32" viewBox="0 0 29 32" fill="none" xmlns="http://www.w3.org/2000/svg">
<path d="M4.14286 2C1.85781 2 0 3.79375 0 6V26C0 28.2062 1.85781 30 4.14286 30H24.8571C27.1422 30 29 28.2062 29 26V6C29 3.79375 27.1422 2 24.8571 2H4.14286ZM23.3748 7.25L16.6556 14.6625L24.5594 24.75H18.371L13.529 18.6313L7.98147 24.75H4.9067L12.092 16.8188L4.51183 7.25H10.8556L15.2379 12.8438L20.3 7.25H23.3748ZM20.9279 22.975L9.92991 8.93125H8.09799L19.219 22.975H20.9214H20.9279Z" fill="#838383"/>
</svg>
