<svg width="35" height="34" viewBox="0 0 35 34" fill="none" xmlns="http://www.w3.org/2000/svg">
<path d="M17.7936 3.25C9.97362 3.25 3.62695 9.41 3.62695 17C3.62695 24.59 9.97362 30.75 17.7936 30.75C25.6136 30.75 31.9603 24.59 31.9603 17C31.9603 9.41 25.6136 3.25 17.7936 3.25ZM24.367 12.6C24.1545 14.7725 23.2336 20.0525 22.7661 22.4863C22.5678 23.5175 22.1711 23.8613 21.8028 23.9025C20.9811 23.9713 20.3578 23.38 19.5645 22.8713C18.3178 22.0738 17.6095 21.5788 16.4053 20.8088C15.0028 19.915 15.9095 19.42 16.717 18.6225C16.9295 18.4163 20.5561 15.2125 20.627 14.9238C20.6368 14.88 20.6355 14.8346 20.6231 14.7915C20.6108 14.7483 20.5878 14.7088 20.5561 14.6763C20.4711 14.6075 20.3578 14.635 20.2586 14.6488C20.1311 14.6763 18.1478 15.955 14.2803 18.485C13.7136 18.8563 13.2036 19.0488 12.7503 19.035C12.2403 19.0213 11.277 18.76 10.5545 18.5263C9.66195 18.2513 8.96779 18.1 9.02445 17.6188C9.05279 17.3713 9.40695 17.1238 10.0728 16.8625C14.2095 15.1163 16.9578 13.9613 18.332 13.4113C22.2703 11.8163 23.0778 11.5413 23.6161 11.5413C23.7295 11.5413 23.9986 11.5688 24.1686 11.7063C24.3103 11.8162 24.3528 11.9675 24.367 12.0775C24.3528 12.16 24.3811 12.4075 24.367 12.6Z" fill="#838383"/>
</svg>
