<svg width="20" height="19" viewBox="0 0 20 19" fill="none" xmlns="http://www.w3.org/2000/svg">
<path d="M9.99314 10.5761C10.3687 10.5761 10.7288 10.4269 10.9944 10.1614C11.2599 9.89584 11.4091 9.53567 11.4091 9.16013C11.4091 8.78459 11.2599 8.42442 10.9944 8.15887C10.7288 7.89332 10.3687 7.74414 9.99314 7.74414C9.61759 7.74414 9.25743 7.89332 8.99188 8.15887C8.72633 8.42442 8.57715 8.78459 8.57715 9.16013C8.57715 9.53567 8.72633 9.89584 8.99188 10.1614C9.25743 10.4269 9.61759 10.5761 9.99314 10.5761Z" stroke="black" stroke-opacity="0.26" stroke-width="0.5" stroke-linecap="round" stroke-linejoin="round"/>
<path d="M6.80566 10.5756V7.74362C6.80566 7.27419 6.99214 6.82399 7.32408 6.49205C7.65602 6.16011 8.10622 5.97363 8.57565 5.97363H11.4076C11.8771 5.97363 12.3273 6.16011 12.6592 6.49205C12.9911 6.82399 13.1776 7.27419 13.1776 7.74362V10.5756C13.1776 11.045 12.9911 11.4952 12.6592 11.8272C12.3273 12.1591 11.8771 12.3456 11.4076 12.3456H8.57565C8.10622 12.3456 7.65602 12.1591 7.32408 11.8272C6.99214 11.4952 6.80566 11.045 6.80566 10.5756Z" stroke="black" stroke-opacity="0.26" stroke-width="0.5"/>
<path d="M11.9399 7.21663L11.9442 7.21191" stroke="black" stroke-opacity="0.26" stroke-width="0.5" stroke-linecap="round" stroke-linejoin="round"/>
<circle cx="10.0474" cy="9.20947" r="8.74059" stroke="black" stroke-opacity="0.12" stroke-width="0.937743"/>
</svg>
