<svg width="36" height="35" viewBox="0 0 36 35" fill="none" xmlns="http://www.w3.org/2000/svg">
<path d="M17.6478 19.9219C18.3553 19.9219 19.0337 19.6409 19.5339 19.1406C20.0342 18.6404 20.3152 17.962 20.3152 17.2545C20.3152 16.5471 20.0342 15.8686 19.5339 15.3684C19.0337 14.8682 18.3553 14.5872 17.6478 14.5872C16.9404 14.5872 16.2619 14.8682 15.7617 15.3684C15.2615 15.8686 14.9805 16.5471 14.9805 17.2545C14.9805 17.962 15.2615 18.6404 15.7617 19.1406C16.2619 19.6409 16.9404 19.9219 17.6478 19.9219Z" stroke="black" stroke-opacity="0.64" stroke-width="1.12529" stroke-linecap="round" stroke-linejoin="round"/>
<path d="M11.6465 19.9219V14.5871C11.6465 13.7029 11.9978 12.8548 12.623 12.2295C13.2483 11.6042 14.0964 11.2529 14.9807 11.2529H20.3154C21.1997 11.2529 22.0477 11.6042 22.673 12.2295C23.2983 12.8548 23.6496 13.7029 23.6496 14.5871V19.9219C23.6496 20.8061 23.2983 21.6542 22.673 22.2795C22.0477 22.9048 21.1997 23.2561 20.3154 23.2561H14.9807C14.0964 23.2561 13.2483 22.9048 12.623 22.2795C11.9978 21.6542 11.6465 20.8061 11.6465 19.9219Z" stroke="black" stroke-opacity="0.64" stroke-width="1.12529"/>
<path d="M21.3164 13.595L21.3244 13.5862" stroke="black" stroke-opacity="0.64" stroke-width="1.12529" stroke-linecap="round" stroke-linejoin="round"/>
<circle cx="17.7408" cy="17.3482" r="16.8794" stroke="black" stroke-opacity="0.54" stroke-width="0.937743"/>
</svg>
