<svg width="13" height="12" viewBox="0 0 13 12" fill="none" xmlns="http://www.w3.org/2000/svg">
<path d="M13 5.4C13 5.08174 12.8755 4.77652 12.6539 4.55147C12.4322 4.32643 12.1316 4.2 11.8182 4.2H8.08364L8.65091 1.458C8.66273 1.398 8.66864 1.332 8.66864 1.266C8.66864 1.02 8.56818 0.792 8.40864 0.63L7.78227 0L3.89409 3.948C3.67545 4.17 3.54545 4.47 3.54545 4.8V10.8C3.54545 11.1183 3.66997 11.4235 3.8916 11.6485C4.11323 11.8736 4.41384 12 4.72727 12H10.0455C10.5359 12 10.9555 11.7 11.1327 11.268L12.9173 7.038C12.9705 6.9 13 6.756 13 6.6V5.4ZM0 12H2.36364V4.8H0V12Z" fill="black"/>
</svg>
