<svg width="29" height="28" viewBox="0 0 29 28" fill="none" xmlns="http://www.w3.org/2000/svg">
<path d="M25.7778 0.5C26.6324 0.5 27.452 0.81607 28.0562 1.37868C28.6605 1.94129 29 2.70435 29 3.5V24.5C29 25.2956 28.6605 26.0587 28.0562 26.6213C27.452 27.1839 26.6324 27.5 25.7778 27.5H3.22222C2.36764 27.5 1.54805 27.1839 0.943767 26.6213C0.339483 26.0587 0 25.2956 0 24.5V3.5C0 2.70435 0.339483 1.94129 0.943767 1.37868C1.54805 0.81607 2.36764 0.5 3.22222 0.5H25.7778ZM24.9722 23.75V15.8C24.9722 14.5031 24.4189 13.2593 23.4339 12.3422C22.4489 11.4252 21.113 10.91 19.72 10.91C18.3506 10.91 16.7556 11.69 15.9822 12.86V11.195H11.4872V23.75H15.9822V16.355C15.9822 15.2 16.9811 14.255 18.2217 14.255C18.8199 14.255 19.3936 14.4762 19.8166 14.8701C20.2396 15.2639 20.4772 15.798 20.4772 16.355V23.75H24.9722ZM6.25111 8.84C6.96896 8.84 7.65742 8.5745 8.16501 8.10191C8.67261 7.62932 8.95778 6.98835 8.95778 6.32C8.95778 4.925 7.74944 3.785 6.25111 3.785C5.52899 3.785 4.83644 4.05208 4.32582 4.52748C3.8152 5.00289 3.52833 5.64768 3.52833 6.32C3.52833 7.715 4.75278 8.84 6.25111 8.84ZM8.49056 23.75V11.195H4.02778V23.75H8.49056Z" fill="#838383"/>
</svg>
