<svg width="28" height="28" viewBox="0 0 28 28" fill="none" xmlns="http://www.w3.org/2000/svg">
<mask id="path-1-inside-1_3_4492" fill="white">
<path fill-rule="evenodd" clip-rule="evenodd" d="M13.8969 27.8973C21.5719 27.8973 27.7938 21.6755 27.7938 14.0004C27.7938 6.32537 21.5719 0.103516 13.8969 0.103516C6.22185 0.103516 0 6.32537 0 14.0004C0 21.6755 6.22185 27.8973 13.8969 27.8973ZM6.0077 8.11385H20.4267C20.7454 8.11385 21.051 8.24045 21.2763 8.46579C21.5017 8.69113 21.6283 8.99676 21.6283 9.31544V18.9281C21.6283 19.2468 21.5017 19.5524 21.2763 19.7777C21.051 20.0031 20.7454 20.1297 20.4267 20.1297H6.0077C5.68902 20.1297 5.38339 20.0031 5.15805 19.7777C4.93271 19.5524 4.80611 19.2468 4.80611 18.9281V9.31544C4.80611 8.99676 4.93271 8.69113 5.15805 8.46579C5.38339 8.24045 5.68902 8.11385 6.0077 8.11385ZM13.2172 13.3888L19.1049 9.31544H7.32944L13.2172 13.3888ZM6.0077 9.86216V18.9281H20.4267V9.86216L13.5596 14.6144C13.4591 14.6842 13.3396 14.7216 13.2172 14.7216C13.0948 14.7216 12.9753 14.6842 12.8747 14.6144L6.0077 9.86216Z"/>
</mask>
<path fill-rule="evenodd" clip-rule="evenodd" d="M13.8969 27.8973C21.5719 27.8973 27.7938 21.6755 27.7938 14.0004C27.7938 6.32537 21.5719 0.103516 13.8969 0.103516C6.22185 0.103516 0 6.32537 0 14.0004C0 21.6755 6.22185 27.8973 13.8969 27.8973ZM6.0077 8.11385H20.4267C20.7454 8.11385 21.051 8.24045 21.2763 8.46579C21.5017 8.69113 21.6283 8.99676 21.6283 9.31544V18.9281C21.6283 19.2468 21.5017 19.5524 21.2763 19.7777C21.051 20.0031 20.7454 20.1297 20.4267 20.1297H6.0077C5.68902 20.1297 5.38339 20.0031 5.15805 19.7777C4.93271 19.5524 4.80611 19.2468 4.80611 18.9281V9.31544C4.80611 8.99676 4.93271 8.69113 5.15805 8.46579C5.38339 8.24045 5.68902 8.11385 6.0077 8.11385ZM13.2172 13.3888L19.1049 9.31544H7.32944L13.2172 13.3888ZM6.0077 9.86216V18.9281H20.4267V9.86216L13.5596 14.6144C13.4591 14.6842 13.3396 14.7216 13.2172 14.7216C13.0948 14.7216 12.9753 14.6842 12.8747 14.6144L6.0077 9.86216Z" fill="#838383"/>
<path d="M21.2763 8.46579L20.6132 9.12887L20.6132 9.12887L21.2763 8.46579ZM21.2763 19.7777L20.6132 19.1147L20.6132 19.1147L21.2763 19.7777ZM5.15805 19.7777L5.82114 19.1147L5.82113 19.1147L5.15805 19.7777ZM5.15805 8.46579L5.82113 9.12887L5.82113 9.12887L5.15805 8.46579ZM19.1049 9.31544L19.6385 10.0866L22.1086 8.37769H19.1049V9.31544ZM13.2172 13.3888L12.6837 14.16L13.2172 14.5291L13.7507 14.16L13.2172 13.3888ZM7.32944 9.31544V8.37769H4.32579L6.79591 10.0866L7.32944 9.31544ZM6.0077 18.9281H5.06995V19.8658H6.0077V18.9281ZM6.0077 9.86216L6.54133 9.09105L5.06995 8.0728V9.86216H6.0077ZM20.4267 18.9281V19.8658H21.3644V18.9281H20.4267ZM20.4267 9.86216H21.3644V8.0728L19.893 9.09105L20.4267 9.86216ZM13.5596 14.6144L13.026 13.8433L13.0251 13.8439L13.5596 14.6144ZM12.8747 14.6144L13.4092 13.8439L13.4084 13.8433L12.8747 14.6144ZM26.856 14.0004C26.856 21.1576 21.054 26.9596 13.8969 26.9596V28.835C22.0898 28.835 28.7315 22.1934 28.7315 14.0004H26.856ZM13.8969 1.04126C21.054 1.04126 26.856 6.84327 26.856 14.0004H28.7315C28.7315 5.80747 22.0898 -0.834228 13.8969 -0.834228V1.04126ZM0.937743 14.0004C0.937743 6.84327 6.73975 1.04126 13.8969 1.04126V-0.834228C5.70395 -0.834228 -0.937743 5.80747 -0.937743 14.0004H0.937743ZM13.8969 26.9596C6.73975 26.9596 0.937743 21.1576 0.937743 14.0004H-0.937743C-0.937743 22.1934 5.70395 28.835 13.8969 28.835V26.9596ZM20.4267 7.17611H6.0077V9.0516H20.4267V7.17611ZM21.9394 7.80271C21.5382 7.4015 20.9941 7.17611 20.4267 7.17611V9.0516C20.4967 9.0516 20.5638 9.07939 20.6132 9.12887L21.9394 7.80271ZM22.566 9.31544C22.566 8.74805 22.3406 8.2039 21.9394 7.80271L20.6132 9.12887C20.6627 9.17836 20.6905 9.24546 20.6905 9.31544H22.566ZM22.566 18.9281V9.31544H20.6905V18.9281H22.566ZM21.9394 20.4408C22.3406 20.0396 22.566 19.4955 22.566 18.9281H20.6905C20.6905 18.9981 20.6627 19.0652 20.6132 19.1147L21.9394 20.4408ZM20.4267 21.0674C20.9941 21.0674 21.5382 20.842 21.9394 20.4408L20.6132 19.1147C20.5638 19.1641 20.4967 19.1919 20.4267 19.1919V21.0674ZM6.0077 21.0674H20.4267V19.1919H6.0077V21.0674ZM4.49496 20.4408C4.89616 20.842 5.44031 21.0674 6.0077 21.0674V19.1919C5.93772 19.1919 5.87061 19.1641 5.82114 19.1147L4.49496 20.4408ZM3.86837 18.9281C3.86837 19.4955 4.09376 20.0396 4.49496 20.4408L5.82113 19.1147C5.77165 19.0652 5.74386 18.9981 5.74386 18.9281H3.86837ZM3.86837 9.31544V18.9281H5.74386V9.31544H3.86837ZM4.49496 7.80271C4.09376 8.20391 3.86837 8.74805 3.86837 9.31544H5.74386C5.74386 9.24546 5.77165 9.17835 5.82113 9.12887L4.49496 7.80271ZM6.0077 7.17611C5.44031 7.17611 4.89617 7.4015 4.49496 7.80271L5.82113 9.12887C5.87061 9.0794 5.93772 9.0516 6.0077 9.0516V7.17611ZM18.5714 8.54426L12.6837 12.6176L13.7507 14.16L19.6385 10.0866L18.5714 8.54426ZM7.32944 10.2532H19.1049V8.37769H7.32944V10.2532ZM13.7507 12.6176L7.86296 8.54426L6.79591 10.0866L12.6837 14.16L13.7507 12.6176ZM6.94544 18.9281V9.86216H5.06995V18.9281H6.94544ZM20.4267 17.9903H6.0077V19.8658H20.4267V17.9903ZM19.4889 9.86216V18.9281H21.3644V9.86216H19.4889ZM14.0933 15.3855L20.9603 10.6333L19.893 9.09105L13.026 13.8433L14.0933 15.3855ZM13.2172 15.6593C13.5306 15.6593 13.8366 15.5636 14.0941 15.3849L13.0251 13.8439C13.0815 13.8048 13.1485 13.7838 13.2172 13.7838V15.6593ZM12.3402 15.3849C12.5978 15.5636 12.9037 15.6593 13.2172 15.6593V13.7838C13.2858 13.7838 13.3528 13.8048 13.4092 13.8439L12.3402 15.3849ZM5.47406 10.6333L12.3411 15.3855L13.4084 13.8433L6.54133 9.09105L5.47406 10.6333Z" fill="#838383" mask="url(#path-1-inside-1_3_4492)"/>
</svg>
