<svg width="34" height="34" viewBox="0 0 34 34" fill="none" xmlns="http://www.w3.org/2000/svg">
<path d="M18.4558 2.83301C20.0496 2.83726 20.8585 2.84576 21.5569 2.86559L21.8318 2.87551C22.1491 2.88684 22.4622 2.90101 22.8404 2.91801C24.3478 2.98884 25.3763 3.22684 26.2787 3.57676C27.2137 3.93659 28.0013 4.42392 28.789 5.21017C29.5094 5.91836 30.0668 6.77501 30.4224 7.72051C30.7723 8.62292 31.0103 9.65142 31.0812 11.1602C31.0982 11.537 31.1123 11.8501 31.1237 12.1688L31.1322 12.4437C31.1534 13.1407 31.1619 13.9496 31.1648 15.5433L31.1662 16.6002V18.456C31.1697 19.4893 31.1588 20.5227 31.1336 21.5557L31.1251 21.8305C31.1138 22.1493 31.0996 22.4623 31.0826 22.8392C31.0118 24.3479 30.7709 25.375 30.4224 26.2788C30.0678 27.2249 29.5103 28.0817 28.789 28.7892C28.0806 29.5093 27.224 30.0667 26.2787 30.4226C25.3763 30.7725 24.3478 31.0105 22.8404 31.0813C22.5043 31.0972 22.1681 31.1113 21.8318 31.1238L21.5569 31.1323C20.8585 31.1522 20.0496 31.1621 18.4558 31.1649L17.399 31.1663H15.5446C14.5108 31.1699 13.477 31.159 12.4435 31.1338L12.1687 31.1253C11.8324 31.1125 11.4962 31.0979 11.16 31.0813C9.65268 31.0105 8.62418 30.7725 7.72035 30.4226C6.77496 30.0675 5.91866 29.51 5.21143 28.7892C4.49041 28.0812 3.9325 27.2246 3.5766 26.2788C3.22668 25.3764 2.98868 24.3479 2.91785 22.8392C2.90207 22.503 2.8879 22.1668 2.87535 21.8305L2.86827 21.5557C2.84216 20.5227 2.83035 19.4893 2.83285 18.456V15.5433C2.82889 14.51 2.83928 13.4767 2.86402 12.4437L2.87393 12.1688C2.88527 11.8501 2.89943 11.537 2.91643 11.1602C2.98727 9.65142 3.22527 8.62434 3.57518 7.72051C3.93093 6.77404 4.48995 5.91712 5.21285 5.21017C5.9199 4.48976 6.77564 3.93232 7.72035 3.57676C8.62418 3.22684 9.65126 2.98884 11.16 2.91801C11.5368 2.90101 11.8513 2.88684 12.1687 2.87551L12.4435 2.86701C13.4765 2.84184 14.5099 2.83098 15.5432 2.83442L18.4558 2.83301ZM16.9995 9.91634C15.1209 9.91634 13.3192 10.6626 11.9908 11.991C10.6625 13.3194 9.91618 15.1211 9.91618 16.9997C9.91618 18.8783 10.6625 20.68 11.9908 22.0083C13.3192 23.3367 15.1209 24.083 16.9995 24.083C18.8781 24.083 20.6798 23.3367 22.0082 22.0083C23.3366 20.68 24.0828 18.8783 24.0828 16.9997C24.0828 15.1211 23.3366 13.3194 22.0082 11.991C20.6798 10.6626 18.8781 9.91634 16.9995 9.91634ZM16.9995 12.7497C17.5576 12.7496 18.1103 12.8594 18.626 13.0729C19.1416 13.2864 19.6102 13.5994 20.0049 13.994C20.3996 14.3886 20.7128 14.857 20.9264 15.3726C21.1401 15.8882 21.2501 16.4408 21.2502 16.999C21.2503 17.5571 21.1405 18.1098 20.927 18.6254C20.7135 19.1411 20.4005 19.6097 20.0059 20.0044C19.6113 20.3991 19.1429 20.7122 18.6273 20.9259C18.1117 21.1396 17.559 21.2496 17.0009 21.2497C15.8738 21.2497 14.7928 20.8019 13.9957 20.0049C13.1987 19.2078 12.7509 18.1268 12.7509 16.9997C12.7509 15.8725 13.1987 14.7915 13.9957 13.9945C14.7928 13.1974 15.8738 12.7497 17.0009 12.7497M24.4384 7.79134C23.9688 7.79134 23.5184 7.97791 23.1863 8.31001C22.8542 8.6421 22.6676 9.09252 22.6676 9.56217C22.6676 10.0318 22.8542 10.4822 23.1863 10.8143C23.5184 11.1464 23.9688 11.333 24.4384 11.333C24.9081 11.333 25.3585 11.1464 25.6906 10.8143C26.0227 10.4822 26.2093 10.0318 26.2093 9.56217C26.2093 9.09252 26.0227 8.6421 25.6906 8.31001C25.3585 7.97791 24.9081 7.79134 24.4384 7.79134Z" fill="#838383"/>
</svg>
