<svg width="35" height="34" viewBox="0 0 35 34" fill="none" xmlns="http://www.w3.org/2000/svg">
<path d="M17.7956 2.83301C25.6198 2.83301 31.9623 9.17543 31.9623 16.9997C31.9623 24.8239 25.6198 31.1663 17.7956 31.1663C15.292 31.1704 12.8325 30.5078 10.6698 29.2468L3.63459 31.1663L5.54993 24.1283C4.28781 21.9649 3.62474 19.5043 3.62893 16.9997C3.62893 9.17543 9.97134 2.83301 17.7956 2.83301ZM12.9676 10.3413L12.6843 10.3527C12.5008 10.3638 12.3216 10.412 12.1573 10.4943C12.0036 10.5814 11.8633 10.6902 11.7408 10.8173C11.5708 10.9774 11.4744 11.1163 11.371 11.2508C10.847 11.9321 10.5649 12.7685 10.5692 13.628C10.572 14.3222 10.7533 14.9979 11.0367 15.6298C11.6161 16.9076 12.5695 18.2605 13.8275 19.5143C14.1307 19.816 14.4282 20.1192 14.7483 20.4011C16.3115 21.7773 18.1742 22.7698 20.1883 23.2996L20.993 23.4228C21.2551 23.437 21.5172 23.4172 21.7807 23.4044C22.1933 23.3831 22.5961 23.2714 22.9608 23.0772C23.1463 22.9816 23.3273 22.8776 23.5033 22.7655C23.5033 22.7655 23.5643 22.7258 23.6804 22.638C23.8717 22.4963 23.9893 22.3958 24.1479 22.23C24.2655 22.1082 24.3675 21.9651 24.4454 21.8022C24.5559 21.5713 24.6664 21.1307 24.7118 20.7638C24.7458 20.4833 24.7358 20.3303 24.7316 20.2353C24.7259 20.0838 24.5998 19.9265 24.4624 19.8599L23.6379 19.4902C23.6379 19.4902 22.4054 18.9533 21.6518 18.6104C21.5729 18.576 21.4884 18.5563 21.4024 18.5523C21.3055 18.5424 21.2076 18.5533 21.1152 18.5843C21.0228 18.6154 20.9382 18.6658 20.8669 18.7323C20.8598 18.7294 20.7649 18.8102 19.7407 20.0512C19.6819 20.1302 19.6009 20.1899 19.5081 20.2227C19.4152 20.2555 19.3147 20.2599 19.2193 20.2353C19.1271 20.2106 19.0366 20.1794 18.9488 20.1418C18.7731 20.0682 18.7122 20.0398 18.5918 19.9888C17.7787 19.634 17.0259 19.1546 16.3605 18.5679C16.182 18.4121 16.0163 18.2421 15.8463 18.0778C15.2889 17.544 14.8032 16.9402 14.4013 16.2814L14.3177 16.1468C14.2576 16.0564 14.2091 15.9589 14.1732 15.8564C14.1193 15.6482 14.2596 15.481 14.2596 15.481C14.2596 15.481 14.6038 15.1042 14.7639 14.9002C14.9198 14.7018 15.0515 14.5092 15.1365 14.3718C15.3037 14.1026 15.3561 13.8263 15.2683 13.6124C14.8716 12.6434 14.4608 11.6787 14.0386 10.721C13.955 10.5312 13.7071 10.3952 13.4818 10.3683C13.4053 10.3598 13.3288 10.3513 13.2523 10.3456C13.0621 10.3361 12.8714 10.338 12.6814 10.3513L12.9676 10.3413Z" fill="#838383"/>
</svg>
