<svg width="19" height="19" viewBox="0 0 19 19" fill="none" xmlns="http://www.w3.org/2000/svg">
<path d="M11.5024 13.2711C11.1584 13.2711 10.8659 13.1472 10.625 12.8995C10.3842 12.6517 10.2638 12.3509 10.2638 11.997C10.2638 11.9475 10.2672 11.8961 10.2741 11.8429C10.281 11.7896 10.2913 11.7419 10.3051 11.6997L7.39418 9.95852C7.27719 10.0647 7.14644 10.1479 7.00193 10.2082C6.85742 10.2685 6.70603 10.2986 6.54775 10.2983C6.20368 10.2983 5.91121 10.1744 5.67036 9.92667C5.42951 9.67894 5.30908 9.37812 5.30908 9.02421C5.30908 8.67031 5.42951 8.36949 5.67036 8.12175C5.91121 7.87402 6.20368 7.75015 6.54775 7.75015C6.70603 7.75015 6.85742 7.7803 7.00193 7.84061C7.14644 7.90092 7.27719 7.98401 7.39418 8.0899L10.3051 6.34868C10.2913 6.30622 10.281 6.25851 10.2741 6.20557C10.2672 6.15262 10.2638 6.10123 10.2638 6.0514C10.2638 5.6975 10.3842 5.39668 10.625 5.14894C10.8659 4.90121 11.1584 4.77734 11.5024 4.77734C11.8465 4.77734 12.139 4.90121 12.3798 5.14894C12.6207 5.39668 12.7411 5.6975 12.7411 6.0514C12.7411 6.40531 12.6207 6.70613 12.3798 6.95386C12.139 7.2016 11.8465 7.32546 11.5024 7.32546C11.3442 7.32546 11.1928 7.29545 11.0483 7.23543C10.9037 7.17541 10.773 7.09217 10.656 6.98572L7.74513 8.72693C7.7589 8.7694 7.76922 8.81725 7.7761 8.87048C7.78298 8.9237 7.78642 8.97495 7.78642 9.02421C7.78642 9.07376 7.78298 9.12515 7.7761 9.17837C7.76922 9.2316 7.7589 9.27931 7.74513 9.32149L10.656 11.0627C10.773 10.9565 10.9037 10.8734 11.0483 10.8134C11.1928 10.7534 11.3442 10.7232 11.5024 10.723C11.8465 10.723 12.139 10.8468 12.3798 11.0946C12.6207 11.3423 12.7411 11.6431 12.7411 11.997C12.7411 12.3509 12.6207 12.6517 12.3798 12.8995C12.139 13.1472 11.8465 13.2711 11.5024 13.2711Z" fill="black" fill-opacity="0.26"/>
<circle cx="9.20947" cy="9.20947" r="8.74059" stroke="black" stroke-opacity="0.12" stroke-width="0.937743"/>
</svg>
