<svg width="35" height="35" viewBox="0 0 35 35" fill="none" xmlns="http://www.w3.org/2000/svg">
<path d="M21.6667 27.1892C21.0185 27.1892 20.4676 26.9385 20.0139 26.4371C19.5602 25.9358 19.3333 25.327 19.3333 24.6108C19.3333 24.5105 19.3398 24.4065 19.3528 24.2988C19.3657 24.1911 19.3852 24.0945 19.4111 24.0092L13.9278 20.4854C13.7074 20.7002 13.4611 20.8687 13.1889 20.9907C12.9167 21.1128 12.6315 21.1735 12.3333 21.1729C11.6852 21.1729 11.1343 20.9223 10.6806 20.4209C10.2269 19.9196 10 19.3108 10 18.5946C10 17.8784 10.2269 17.2696 10.6806 16.7682C11.1343 16.2669 11.6852 16.0162 12.3333 16.0162C12.6315 16.0162 12.9167 16.0772 13.1889 16.1993C13.4611 16.3213 13.7074 16.4895 13.9278 16.7038L19.4111 13.18C19.3852 13.094 19.3657 12.9975 19.3528 12.8904C19.3398 12.7832 19.3333 12.6792 19.3333 12.5784C19.3333 11.8622 19.5602 11.2534 20.0139 10.752C20.4676 10.2507 21.0185 10 21.6667 10C22.3148 10 22.8657 10.2507 23.3194 10.752C23.7731 11.2534 24 11.8622 24 12.5784C24 13.2946 23.7731 13.9034 23.3194 14.4047C22.8657 14.9061 22.3148 15.1567 21.6667 15.1567C21.3685 15.1567 21.0833 15.096 20.8111 14.9745C20.5389 14.8531 20.2926 14.6846 20.0722 14.4692L14.5889 17.993C14.6148 18.0789 14.6343 18.1757 14.6472 18.2835C14.6602 18.3912 14.6667 18.4949 14.6667 18.5946C14.6667 18.6948 14.6602 18.7988 14.6472 18.9066C14.6343 19.0143 14.6148 19.1108 14.5889 19.1962L20.0722 22.72C20.2926 22.5051 20.5389 22.3369 20.8111 22.2155C21.0833 22.094 21.3685 22.033 21.6667 22.0324C22.3148 22.0324 22.8657 22.2831 23.3194 22.7844C23.7731 23.2858 24 23.8946 24 24.6108C24 25.327 23.7731 25.9358 23.3194 26.4371C22.8657 26.9385 22.3148 27.1892 21.6667 27.1892Z" fill="white" fill-opacity="0.54"/>
<circle cx="17.3482" cy="17.3482" r="16.8794" stroke="white" stroke-opacity="0.54" stroke-width="0.937743"/>
</svg>
