<svg width="19" height="19" viewBox="0 0 19 19" fill="none" xmlns="http://www.w3.org/2000/svg">
<circle cx="9.4663" cy="9.20947" r="8.74059" stroke="black" stroke-opacity="0.12" stroke-width="0.937743"/>
<path fill-rule="evenodd" clip-rule="evenodd" d="M7.58047 9.69822C7.59505 9.70335 7.61004 9.70707 7.62525 9.70932C7.72123 9.94818 7.81667 10.1873 7.91157 10.4266C8.08221 10.8573 8.2542 11.3008 8.29186 11.4284C8.33901 11.5853 8.38854 11.6921 8.44282 11.7652C8.47097 11.8024 8.5032 11.8354 8.5412 11.8605C8.56099 11.8735 8.58217 11.8841 8.60429 11.892C8.71285 11.935 8.81191 11.9171 8.87399 11.8952C8.91042 11.8821 8.94508 11.864 8.97712 11.8415L8.97881 11.8408L9.9375 11.2095L11.0451 12.1059C11.0614 12.1191 11.079 12.1303 11.098 12.1392C11.231 12.2001 11.3599 12.2216 11.4814 12.2044C11.6021 12.1865 11.6981 12.1331 11.7697 12.0726C11.8519 12.0026 11.9174 11.9133 11.9611 11.8117L11.9641 11.8039L11.9651 11.801L11.9658 11.7996V11.7988C11.9717 11.7834 11.9766 11.7671 11.9797 11.7508L12.9906 6.3676C12.9938 6.35037 12.9954 6.33285 12.9954 6.31529C12.9954 6.15765 12.9391 6.00752 12.8071 5.91688C12.6938 5.83913 12.568 5.83555 12.4882 5.842C12.4027 5.84916 12.3234 5.87138 12.2701 5.88929C12.2403 5.89927 12.2109 5.91051 12.1819 5.92297L12.1782 5.92476L6.50814 8.27368L6.50746 8.27403C6.48828 8.28149 6.46938 8.28973 6.45081 8.29876C6.40585 8.32011 6.36272 8.34552 6.3219 8.37471C6.24489 8.43025 6.06747 8.58288 6.09766 8.83511C6.12141 9.03575 6.25167 9.15936 6.3314 9.21883C6.37482 9.25144 6.41621 9.27472 6.44674 9.29013C6.46031 9.2973 6.48948 9.30948 6.50203 9.31521L6.50543 9.31629L7.58047 9.69822ZM12.3766 6.41919H12.3759C12.373 6.42056 12.3701 6.42188 12.3671 6.42314L6.69031 8.77528C6.68739 8.77652 6.68445 8.77772 6.68149 8.77886L6.6781 8.77993C6.66773 8.78424 6.65754 8.78902 6.64757 8.79426C6.65701 8.79998 6.66675 8.80512 6.67674 8.80967L7.74263 9.18874C7.76168 9.19552 7.7799 9.20466 7.79691 9.21597L11.3172 7.03939L11.3206 7.03759C11.3343 7.02882 11.3483 7.02069 11.3626 7.01323C11.3871 6.99997 11.4261 6.98063 11.4702 6.9663C11.5007 6.95626 11.5913 6.92796 11.689 6.96128C11.7408 6.97853 11.787 7.01083 11.8223 7.05448C11.8575 7.09813 11.8805 7.15137 11.8885 7.20814C11.9011 7.25785 11.9014 7.31015 11.8895 7.36005C11.8657 7.45858 11.8006 7.53525 11.7412 7.59401C11.6903 7.64417 11.0302 8.31631 10.3792 8.97986L9.49276 9.88273L9.33501 10.044L11.327 11.657C11.3539 11.6689 11.3831 11.6738 11.4122 11.6713C11.4268 11.6692 11.4406 11.6627 11.4519 11.6527C11.4656 11.6404 11.4774 11.6259 11.4868 11.6097L11.4875 11.6093L12.4679 6.38802C12.437 6.39587 12.4067 6.40617 12.3773 6.41884L12.3766 6.41919ZM9.50633 10.8598L9.10874 10.538L9.0124 11.1847L9.50633 10.8598ZM8.74406 9.89957L9.13927 9.4965L10.0257 8.59291L10.3558 8.25684L8.14395 9.62441L8.15582 9.65379C8.29532 10.0018 8.43328 10.3506 8.56969 10.7L8.6657 10.0551C8.67438 9.99525 8.70201 9.94067 8.74406 9.89957Z" fill="black" fill-opacity="0.26"/>
</svg>
