<svg width="35" height="35" viewBox="0 0 35 35" fill="none" xmlns="http://www.w3.org/2000/svg">
<circle cx="17.4381" cy="17.3482" r="16.8794" stroke="black" stroke-opacity="0.54" stroke-width="0.937743"/>
<path fill-rule="evenodd" clip-rule="evenodd" d="M13.8895 18.2682C13.917 18.2778 13.9452 18.2848 13.9739 18.2891C14.1547 18.739 14.3345 19.1894 14.5132 19.6403C14.8347 20.4515 15.1587 21.2871 15.2296 21.5273C15.3184 21.823 15.4117 22.0241 15.514 22.1618C15.567 22.232 15.6277 22.2941 15.6993 22.3413C15.7366 22.3659 15.7765 22.3859 15.8181 22.4007C16.0226 22.4817 16.2092 22.4479 16.3262 22.4068C16.3948 22.382 16.4601 22.348 16.5204 22.3055L16.5236 22.3042L18.3296 21.115L20.416 22.8036C20.4467 22.8286 20.4799 22.8495 20.5157 22.8664C20.7662 22.9811 21.009 23.0216 21.2378 22.9892C21.4653 22.9555 21.6462 22.8549 21.781 22.7408C21.9358 22.609 22.0593 22.4408 22.1414 22.2495L22.1472 22.2347L22.1491 22.2293L22.1504 22.2266V22.2252C22.1615 22.1962 22.1707 22.1655 22.1766 22.1348L24.0809 11.9942C24.0869 11.9617 24.0899 11.9287 24.0898 11.8956C24.0898 11.5987 23.9838 11.3159 23.7352 11.1451C23.5217 10.9987 23.2847 10.9919 23.1345 11.0041C22.9734 11.0176 22.8239 11.0594 22.7236 11.0931C22.6674 11.1119 22.612 11.1331 22.5574 11.1566L22.5504 11.16L11.8695 15.5847L11.8682 15.5854C11.8321 15.5994 11.7965 15.615 11.7615 15.632C11.6768 15.6722 11.5956 15.72 11.5187 15.775C11.3736 15.8796 11.0394 16.1672 11.0963 16.6423C11.141 17.0203 11.3864 17.2531 11.5366 17.3651C11.6184 17.4266 11.6963 17.4704 11.7539 17.4994C11.7794 17.5129 11.8344 17.5359 11.858 17.5467L11.8644 17.5487L13.8895 18.2682ZM22.9242 12.0913H22.923C22.9175 12.0939 22.9119 12.0964 22.9063 12.0988L12.2127 16.5296C12.2072 16.5319 12.2016 16.5342 12.1961 16.5363L12.1897 16.5384C12.1701 16.5465 12.151 16.5555 12.1322 16.5654C12.15 16.5761 12.1683 16.5858 12.1871 16.5944L14.195 17.3084C14.2309 17.3212 14.2652 17.3384 14.2972 17.3597L20.9285 13.2596L20.9349 13.2563C20.9607 13.2397 20.9871 13.2244 21.0142 13.2104C21.0602 13.1854 21.1337 13.1489 21.2167 13.1219C21.2742 13.103 21.4449 13.0497 21.6289 13.1125C21.7265 13.145 21.8135 13.2058 21.88 13.2881C21.9464 13.3703 21.9896 13.4706 22.0047 13.5775C22.0285 13.6712 22.0291 13.7697 22.0066 13.8637C21.9618 14.0493 21.8392 14.1937 21.7273 14.3044C21.6315 14.3989 20.3879 15.665 19.1616 16.915L17.4918 18.6158L17.1946 18.9195L20.9471 21.9579C20.9977 21.9804 21.0527 21.9897 21.1075 21.9849C21.135 21.981 21.161 21.9688 21.1822 21.9498C21.2081 21.9267 21.2304 21.8994 21.248 21.8689L21.2493 21.8682L23.0961 12.0326C23.038 12.0474 22.9809 12.0668 22.9255 12.0907L22.9242 12.0913ZM17.5173 20.4563L16.7684 19.8502L16.5869 21.0684L17.5173 20.4563ZM16.0814 18.6475L16.8259 17.8882L18.4957 16.1861L19.1175 15.553L14.951 18.1291L14.9733 18.1845C15.2361 18.8401 15.496 19.497 15.753 20.1552L15.9338 18.9404C15.9502 18.8277 16.0022 18.7249 16.0814 18.6475Z" fill="black" fill-opacity="0.64"/>
</svg>
