<svg width="36" height="35" viewBox="0 0 36 35" fill="none" xmlns="http://www.w3.org/2000/svg">
<path d="M23.765 11.5606C23.0772 10.8658 22.258 10.315 21.3551 9.94017C20.4522 9.56536 19.4838 9.37408 18.5062 9.37749C14.4101 9.37749 11.0717 12.7159 11.0717 16.8119C11.0717 18.1248 11.4168 19.4001 12.062 20.5254L11.0117 24.3814L14.9502 23.3461C16.038 23.9388 17.2608 24.2538 18.5062 24.2538C22.6022 24.2538 25.9406 20.9155 25.9406 16.8194C25.9406 14.8314 25.1679 12.9634 23.765 11.5606ZM18.5062 22.9935C17.3959 22.9935 16.3081 22.6934 15.3553 22.1308L15.1303 21.9958L12.7897 22.6109L13.4123 20.3303L13.2623 20.0978C12.6455 19.1127 12.3179 17.9741 12.3171 16.8119C12.3171 13.406 15.0928 10.6303 18.4987 10.6303C20.1491 10.6303 21.702 11.2755 22.8648 12.4458C23.4405 13.0189 23.8968 13.7006 24.2072 14.4514C24.5175 15.2021 24.6758 16.007 24.6728 16.8194C24.6878 20.2253 21.912 22.9935 18.5062 22.9935ZM21.897 18.3723C21.7095 18.2823 20.7943 17.8322 20.6292 17.7647C20.4567 17.7046 20.3366 17.6746 20.2091 17.8547C20.0816 18.0422 19.729 18.4623 19.6239 18.5824C19.5189 18.7099 19.4064 18.7249 19.2188 18.6274C19.0313 18.5374 18.4311 18.3348 17.726 17.7046C17.1708 17.2095 16.8032 16.6019 16.6907 16.4143C16.5857 16.2268 16.6757 16.1292 16.7732 16.0317C16.8557 15.9492 16.9608 15.8142 17.0508 15.7091C17.1408 15.6041 17.1783 15.5216 17.2383 15.4015C17.2983 15.274 17.2683 15.169 17.2233 15.079C17.1783 14.9889 16.8032 14.0737 16.6532 13.6986C16.5031 13.3385 16.3456 13.3835 16.2331 13.376H15.873C15.7454 13.376 15.5504 13.421 15.3778 13.6086C15.2128 13.7961 14.7327 14.2462 14.7327 15.1615C14.7327 16.0767 15.4004 16.962 15.4904 17.082C15.5804 17.2095 16.8032 19.085 18.6637 19.8877C19.1063 20.0828 19.4514 20.1953 19.7215 20.2778C20.1641 20.4204 20.5692 20.3978 20.8918 20.3528C21.2519 20.3003 21.9946 19.9027 22.1446 19.4676C22.3021 19.0325 22.3021 18.6649 22.2496 18.5824C22.1971 18.4999 22.0846 18.4623 21.897 18.3723Z" fill="black" fill-opacity="0.64"/>
<circle cx="18.0455" cy="17.3482" r="16.8794" stroke="black" stroke-opacity="0.54" stroke-width="0.937743"/>
</svg>
