<svg width="19" height="19" viewBox="0 0 19 19" fill="none" xmlns="http://www.w3.org/2000/svg">
<path d="M12.6613 6.13646C12.2962 5.76766 11.8613 5.47524 11.382 5.27627C10.9027 5.0773 10.3886 4.97575 9.8696 4.97756C7.69517 4.97756 5.92297 6.74976 5.92297 8.92419C5.92297 9.62112 6.10617 10.2981 6.44866 10.8955L5.89111 12.9425L7.98191 12.3929C8.55937 12.7075 9.20851 12.8748 9.8696 12.8748C12.044 12.8748 13.8162 11.1026 13.8162 8.92817C13.8162 7.87282 13.406 6.88118 12.6613 6.13646ZM9.8696 12.2057C9.2802 12.2057 8.70274 12.0465 8.19696 11.7478L8.07749 11.6761L6.83496 12.0026L7.1655 10.792L7.08585 10.6685C6.75839 10.1456 6.58452 9.54117 6.58406 8.92419C6.58406 7.11615 8.05758 5.64264 9.86562 5.64264C10.7418 5.64264 11.5661 5.98513 12.1834 6.60639C12.4891 6.91064 12.7313 7.27253 12.896 7.67108C13.0608 8.06963 13.1448 8.49692 13.1432 8.92817C13.1512 10.7362 11.6776 12.2057 9.8696 12.2057ZM11.6697 9.75255C11.5701 9.70476 11.0843 9.46581 10.9966 9.42997C10.905 9.39811 10.8413 9.38218 10.7736 9.47776C10.7059 9.57732 10.5187 9.80034 10.463 9.86406C10.4072 9.93176 10.3475 9.93972 10.2479 9.88795C10.1484 9.84016 9.82978 9.73263 9.45542 9.39811C9.16072 9.13526 8.96558 8.81268 8.90584 8.71312C8.85009 8.61356 8.89788 8.56179 8.94965 8.51002C8.99346 8.46621 9.04921 8.39452 9.097 8.33877C9.14479 8.28301 9.1647 8.23921 9.19656 8.17549C9.22842 8.10779 9.21249 8.05203 9.1886 8.00424C9.1647 7.95645 8.96558 7.47059 8.88593 7.27147C8.80628 7.08031 8.72265 7.1042 8.66291 7.10022H8.47175C8.40405 7.10022 8.30051 7.12411 8.20891 7.22368C8.1213 7.32324 7.86642 7.56219 7.86642 8.04805C7.86642 8.53391 8.22086 9.00384 8.26865 9.06756C8.31644 9.13526 8.96558 10.1309 9.95323 10.557C10.1882 10.6606 10.3714 10.7203 10.5148 10.7641C10.7497 10.8398 10.9648 10.8278 11.136 10.8039C11.3272 10.776 11.7214 10.565 11.8011 10.334C11.8847 10.103 11.8847 9.90786 11.8569 9.86406C11.829 9.82025 11.7692 9.80034 11.6697 9.75255Z" fill="black" fill-opacity="0.26"/>
<circle cx="9.62841" cy="9.20947" r="8.74059" stroke="black" stroke-opacity="0.12" stroke-width="0.937743"/>
</svg>
